<svg version="1.1" id="Layer_1" xmlns="http://www.w3.org/2000/svg" xmlns:xlink="http://www.w3.org/1999/xlink" x="0px" y="0px"
	 width="100%" viewBox="0 0 500 500" enable-background="new 0 0 500 500" xml:space="preserve">
<path fill="none" opacity="1.000000" stroke="#000000" stroke-linecap="round" stroke-linejoin="round" stroke-width="3.000000"
	d="
M360.500000,230.500015 
	C362.833313,232.500015 365.114685,234.564896 367.511993,236.485046 
	C371.251984,239.480682 370.736969,244.230347 371.760620,248.063919 
	C374.665375,258.942139 375.969635,270.190582 375.980957,281.500031 
	C376.026733,327.333313 375.959320,373.166748 376.073456,418.999817 
	C376.083099,422.863464 375.383118,424.587372 370.999878,424.581299 
	C290.833374,424.470032 210.666672,424.500793 130.500000,424.487030 
	C129.817825,424.486908 129.000687,424.830597 128.000000,423.149109 
	C128.000000,423.054108 128.000000,422.027069 128.000000,421.000000 
	C128.000000,373.000000 128.004501,325.000000 127.994255,277.000000 
	C127.992996,271.085510 128.821106,265.276611 129.969299,259.493896 
	C130.095978,258.855896 130.322006,258.002838 129.500000,257.500000 
"/>
<path fill="none" opacity="1.000000" stroke="#000000" stroke-linecap="round" stroke-linejoin="round" stroke-width="3.000000"
	d="
M248.500000,400.500000 
	C247.474030,394.792511 244.173141,391.308258 239.500000,391.000031 
	C233.994431,390.636902 230.214203,393.214294 228.500000,398.500000 
	C226.960861,403.245880 230.277756,409.624512 235.000000,411.000000 
	C240.715637,412.664856 246.744476,409.425720 247.991440,403.998047 
	C248.218033,403.011810 248.333344,402.000000 248.500015,401.000000 
"/>
<path fill="none" opacity="1.000000" stroke="#000000" stroke-linecap="round" stroke-linejoin="round" stroke-width="3.000000"
	d="
M257.500000,316.500000 
	C257.500000,320.833344 257.401733,325.169586 257.531219,329.499054 
	C257.634216,332.942963 258.956848,336.172150 262.527008,336.859711 
	C265.880615,337.505585 269.472290,337.482513 272.091248,334.070038 
	C273.186371,332.643097 272.949829,331.368805 272.972260,329.999542 
	C273.046021,325.500763 273.000000,321.000000 273.000000,316.500000 
"/>
<path fill="none" opacity="1.000000" stroke="#000000" stroke-linecap="round" stroke-linejoin="round" stroke-width="2.000000"
	d="
M189.500000,84.500000 
	C193.168564,87.484436 194.525803,92.328194 195.624359,96.109146 
	C198.983810,107.671577 208.288818,112.894142 217.148193,118.255104 
	C222.858673,121.710617 228.564804,125.137733 233.965775,129.047287 
	C235.456055,130.126068 236.696121,131.034103 238.500000,130.000000 
"/>
<path fill="none" opacity="1.000000" stroke="#000000" stroke-linecap="round" stroke-linejoin="round" stroke-width="2.000000"
	d="
M204.000000,141.500000 
	C203.166672,137.166672 202.328644,132.834229 201.501053,128.499802 
	C200.195023,121.659615 197.343109,116.524811 190.097000,113.746956 
	C185.668198,112.049133 182.055603,109.755051 176.944763,111.319572 
	C174.142853,112.177299 171.294327,109.917908 169.019272,107.977417 
	C164.707993,104.300163 161.735306,99.264687 157.000000,96.000000 
"/>
<path fill="none" opacity="1.000000" stroke="#000000" stroke-linecap="round" stroke-linejoin="round" stroke-width="2.000000"
	d="
M148.000000,215.000000 
	C143.585632,220.052231 137.856064,222.897873 131.481613,224.423172 
	C129.432281,224.913544 126.590294,225.354553 125.101089,224.350113 
	C119.078201,220.287888 111.466324,220.467499 105.500000,216.500000 
"/>
<path fill="none" opacity="1.000000" stroke="#000000" stroke-linecap="round" stroke-linejoin="round" stroke-width="2.000000"
	d="
M254.500000,243.500000 
	C250.517502,248.548584 254.796539,252.589691 256.687958,256.406860 
	C259.267883,261.613525 263.311157,266.076355 266.419617,271.050232 
	C267.471313,272.733093 268.468018,275.003204 266.498901,276.998901 
	C265.128723,278.387573 264.887177,280.237549 264.516571,282.003479 
	C263.585907,286.438110 260.851074,289.414276 256.995178,291.491028 
	C254.548874,292.808594 251.849503,293.771027 250.500000,296.500000 
"/>
<path fill="none" opacity="1.000000" stroke="#000000" stroke-linecap="round" stroke-linejoin="round" stroke-width="3.000000"
	d="
M195.500000,316.500000 
	C192.179901,320.631134 191.109283,325.806244 188.968460,330.485565 
	C188.008911,332.582916 187.592499,335.040070 184.962708,336.814606 
	C182.122711,329.997223 179.311356,323.248627 176.500000,316.500000 
"/>
<path fill="none" opacity="1.000000" stroke="#000000" stroke-linecap="round" stroke-linejoin="round" stroke-width="2.000000"
	d="
M153.500000,221.500000 
	C149.262146,222.488281 148.339569,225.949570 147.492386,229.498184 
	C146.694580,232.839996 145.693954,236.138992 145.025406,239.505051 
	C142.760330,250.909149 133.773987,255.446655 124.431610,259.335693 
	C122.563057,260.113556 120.842270,261.860138 118.500000,261.500000 
"/>
<path fill="none" opacity="1.000000" stroke="#000000" stroke-linecap="round" stroke-linejoin="round" stroke-width="2.000000"
	d="
M166.500000,124.500000 
	C167.620850,135.332779 176.187225,137.561844 184.508163,139.971817 
	C188.441650,141.111069 192.247162,142.422913 195.500000,145.000000 
"/>
<path fill="none" opacity="1.000000" stroke="#000000" stroke-linecap="round" stroke-linejoin="round" stroke-width="2.000000"
	d="
M281.500000,164.500000 
	C280.666656,168.833328 280.206970,173.280411 278.929077,177.478409 
	C275.276276,189.478241 267.273529,197.787201 255.954376,202.898987 
	C254.973679,203.341873 254.283859,203.917526 253.500000,204.500000 
"/>
<path fill="none" opacity="1.000000" stroke="#000000" stroke-linecap="round" stroke-linejoin="round" stroke-width="3.000000"
	d="
M189.500000,402.000000 
	C191.997833,400.748383 194.362747,399.387665 193.997131,396.000305 
	C193.574142,392.081604 190.219986,391.717224 187.477158,391.101807 
	C185.244308,390.600861 182.809525,391.000000 180.000000,391.000000 
	C180.000000,398.158325 180.000000,404.829163 180.000000,411.500000 
"/>
<path fill="none" opacity="1.000000" stroke="#000000" stroke-linecap="round" stroke-linejoin="round" stroke-width="3.000000"
	d="
M271.500000,400.000000 
	C272.966248,398.457428 274.831024,397.178772 273.540161,394.480804 
	C272.272461,391.831238 270.123230,391.065033 267.499786,391.010284 
	C265.155548,390.961365 262.809509,391.000000 260.250000,391.000000 
	C260.250000,397.833344 260.250000,404.166656 260.250000,411.000000 
	C262.809875,411.000000 265.159912,410.903015 267.498810,411.023163 
	C270.854919,411.195526 273.729034,410.070953 274.887299,406.958069 
	C275.917480,404.189392 273.573242,402.471161 271.500000,401.000000 
"/>
<path fill="none" opacity="1.000000" stroke="#000000" stroke-linecap="round" stroke-linejoin="round" stroke-width="2.000000"
	d="
M131.000000,230.000000 
	C125.279755,232.497559 120.705002,236.522217 116.520767,241.019318 
	C114.733101,242.940643 114.205048,245.439377 113.997246,247.999771 
	C113.753441,251.004013 113.231094,253.930710 111.500000,256.500000 
"/>
<path fill="none" opacity="1.000000" stroke="#000000" stroke-linecap="round" stroke-linejoin="round" stroke-width="2.000000"
	d="
M178.000000,147.000000 
	C172.295242,149.624619 166.779312,152.573364 161.470779,155.954117 
	C157.880402,158.240662 153.937988,160.035416 149.509827,159.428329 
	C147.893250,159.206696 147.055557,158.166672 149.500000,157.500000 
"/>
<path fill="none" opacity="1.000000" stroke="#000000" stroke-linecap="round" stroke-linejoin="round" stroke-width="2.000000"
	d="
M235.000000,270.500000 
	C235.896347,279.711395 240.028290,287.930847 243.089462,296.467926 
	C243.479660,297.556122 243.254944,298.513062 243.500000,299.500000 
"/>
<path fill="none" opacity="1.000000" stroke="#000000" stroke-linecap="round" stroke-linejoin="round" stroke-width="2.000000"
	d="
M249.500000,196.500000 
	C248.765152,187.719086 246.421738,179.258057 242.348206,171.580536 
	C238.549774,164.421570 233.117981,158.472931 225.066895,155.328705 
	C223.074814,154.550720 221.322861,154.890930 219.500000,154.500000 
"/>
<path fill="none" opacity="1.000000" stroke="#000000" stroke-linecap="round" stroke-linejoin="round" stroke-width="2.000000"
	d="
M266.500000,100.500000 
	C265.891632,108.938057 263.065460,116.420280 256.999237,122.499245 
	C247.630554,131.887650 246.528534,129.446320 241.201538,119.887680 
	C239.977982,117.692146 239.074829,114.964684 238.101990,112.460381 
	C236.343521,107.933701 235.194229,103.321991 237.873932,98.430931 
	C239.113083,96.169228 239.101547,93.180962 239.479340,90.497093 
	C240.323624,84.499207 244.095352,80.106407 247.500000,75.500000 
"/>
<path fill="none" opacity="1.000000" stroke="#000000" stroke-linecap="round" stroke-linejoin="round" stroke-width="2.000000"
	d="
M198.000000,146.500000 
	C194.000000,148.293686 189.751495,146.764740 186.049332,146.184982 
	C177.055344,144.776520 168.973618,144.060165 161.857788,151.361404 
	C159.864227,153.406921 156.800186,155.158722 153.500000,155.500000 
"/>
<path fill="none" opacity="1.000000" stroke="#000000" stroke-linecap="round" stroke-linejoin="round" stroke-width="2.000000"
	d="
M369.500000,198.500000 
	C362.403412,205.932404 353.286011,209.161606 343.500000,211.000000 
"/>
<path fill="none" opacity="1.000000" stroke="#000000" stroke-linecap="round" stroke-linejoin="round" stroke-width="3.000000"
	d="
M354.500000,391.500000 
	C349.833344,390.402161 345.166656,391.331421 340.250000,390.853973 
	C340.250000,397.833344 340.250000,404.166656 340.250000,411.000000 
	C345.154755,411.000000 349.827393,411.000000 354.500000,411.000000 
"/>
<path fill="none" opacity="1.000000" stroke="#000000" stroke-linecap="round" stroke-linejoin="round" stroke-width="3.000000"
	d="
M219.500000,317.500000 
	C214.833328,316.402161 210.166672,317.331421 205.250000,316.853973 
	C205.250000,323.833344 205.250000,330.166656 205.250000,337.000000 
	C210.154770,337.000000 214.827377,337.000000 219.500000,337.000000 
"/>
<path fill="none" opacity="1.000000" stroke="#000000" stroke-linecap="round" stroke-linejoin="round" stroke-width="3.000000"
	d="
M300.500000,391.500000 
	C295.833344,390.402161 291.166656,391.331421 286.250000,390.853973 
	C286.250000,397.833344 286.250000,404.166656 286.250000,411.000000 
	C291.154755,411.000000 295.827393,411.000000 300.500000,411.000000 
"/>
<path fill="none" opacity="1.000000" stroke="#000000" stroke-linecap="round" stroke-linejoin="round" stroke-width="2.000000"
	d="
M402.500000,208.500000 
	C406.279358,207.549271 409.260315,210.034027 412.452454,211.137512 
	C418.286194,213.154190 423.833344,216.000000 429.500000,218.500000 
"/>
<path fill="none" opacity="1.000000" stroke="#000000" stroke-linecap="round" stroke-linejoin="round" stroke-width="2.000000"
	d="
M221.500000,70.500000 
	C221.412872,71.501518 222.653824,71.818405 222.552399,73.004478 
	C221.987473,79.610268 222.968765,86.088676 224.500000,92.500000 
"/>
<path fill="none" opacity="1.000000" stroke="#000000" stroke-linecap="round" stroke-linejoin="round" stroke-width="3.000000"
	d="
M191.500000,241.500015 
	C188.833344,242.166687 186.135040,242.728622 183.506836,243.522659 
	C178.638519,244.993469 173.562881,243.264908 171.018173,238.989182 
	C169.386780,236.247986 168.560150,232.773178 164.500000,232.500000 
"/>
<path fill="none" opacity="1.000000" stroke="#000000" stroke-linecap="round" stroke-linejoin="round" stroke-width="2.000000"
	d="
M252.000000,248.000000 
	C248.063568,250.762009 242.977325,251.834747 240.016525,256.011719 
	C238.188248,258.590912 237.530075,261.834869 236.337479,264.643311 
	C233.735046,270.771759 229.566681,275.777466 226.500000,281.500000 
"/>
<path fill="none" opacity="1.000000" stroke="#000000" stroke-linecap="round" stroke-linejoin="round" stroke-width="2.000000"
	d="
M322.500000,192.500000 
	C322.621246,196.309921 322.635437,200.100388 320.199249,203.968918 
	C329.138367,204.974640 334.882660,209.536270 336.500000,218.500000 
"/>
<path fill="none" opacity="1.000000" stroke="#000000" stroke-linecap="round" stroke-linejoin="round" stroke-width="3.000000"
	d="
M211.500000,392.000000 
	C210.369003,398.475281 211.300568,405.003418 211.000000,411.500000 
"/>
<path fill="none" opacity="1.000000" stroke="#000000" stroke-linecap="round" stroke-linejoin="round" stroke-width="2.000000"
	d="
M263.000000,223.500000 
	C267.348206,224.959824 269.476532,228.962662 270.257812,232.552704 
	C271.732452,239.328857 274.370270,245.460083 277.500000,251.500000 
"/>
<path fill="none" opacity="1.000000" stroke="#000000" stroke-linecap="round" stroke-linejoin="round" stroke-width="3.000000"
	d="
M327.500000,390.500000 
	C328.142853,396.771576 328.767487,403.042694 327.000000,409.250000 
"/>
<path fill="none" opacity="1.000000" stroke="#000000" stroke-linecap="round" stroke-linejoin="round" stroke-width="2.000000"
	d="
M153.500000,169.500000 
	C156.345871,174.468658 161.154236,174.836441 165.988327,174.377197 
	C167.892838,174.196259 169.666672,173.899765 171.500000,174.500000 
"/>
<path fill="none" opacity="1.000000" stroke="#000000" stroke-linecap="round" stroke-linejoin="round" stroke-width="4.000000"
	d="
M291.500000,318.000000 
	C291.500000,324.166656 291.500000,330.333344 291.500000,336.500000 
"/>
<path fill="none" opacity="1.000000" stroke="#000000" stroke-linecap="round" stroke-linejoin="round" stroke-width="3.000000"
	d="
M240.000000,208.500000 
	C241.230911,210.113602 240.039810,211.043549 238.998077,211.997894 
	C235.626343,215.086746 231.611023,217.942551 227.449554,218.735092 
	C220.261627,220.104034 219.989639,225.526550 218.536514,230.510651 
	C217.825577,232.949158 217.569977,235.516418 216.987900,237.997162 
	C214.435349,248.875443 217.687973,254.746536 227.882004,260.219788 
	C230.500839,261.625854 231.970749,261.023865 233.418350,259.895264 
	C235.009796,258.654510 236.449142,257.564941 238.500000,257.500000 
"/>
<path fill="none" opacity="1.000000" stroke="#000000" stroke-linecap="round" stroke-linejoin="round" stroke-width="2.000000"
	d="
M129.500000,202.500000 
	C123.500000,201.500000 117.500000,200.500000 111.500000,199.500000 
"/>
<path fill="none" opacity="1.000000" stroke="#000000" stroke-linecap="round" stroke-linejoin="round" stroke-width="5.000000"
	d="
M279.500000,225.500000 
	C277.357635,225.260452 275.591248,225.686096 273.238647,223.831528 
	C270.277740,221.497406 267.184753,217.751862 261.949799,218.731812 
	C260.202820,219.058838 257.868286,216.259277 257.500000,213.500000 
"/>
<path fill="none" opacity="1.000000" stroke="#000000" stroke-linecap="round" stroke-linejoin="round" stroke-width="2.000000"
	d="
M319.500000,205.000000 
	C318.371765,206.857788 316.876526,208.438919 315.725128,210.332901 
	C311.752747,216.867233 306.323944,222.321594 298.500000,224.500000 
"/>
<path fill="none" opacity="1.000000" stroke="#000000" stroke-linecap="round" stroke-linejoin="round" stroke-width="3.000000"
	d="
M232.500000,110.500000 
	C237.120819,116.552238 238.312683,123.774010 239.537521,130.993637 
	C239.574326,131.210602 240.166672,131.333328 240.500000,131.500000 
"/>
<path fill="none" opacity="1.000000" stroke="#000000" stroke-linecap="round" stroke-linejoin="round" stroke-width="2.000000"
	d="
M296.000000,248.500000 
	C298.561829,253.131638 296.365112,258.748352 290.980499,260.952362 
	C289.780060,261.443726 288.333344,261.333344 287.000000,261.500000 
"/>
<path fill="none" opacity="1.000000" stroke="#000000" stroke-linecap="round" stroke-linejoin="round" stroke-width="2.000000"
	d="
M397.500000,206.500000 
	C390.098938,206.421753 382.727417,206.668335 375.500000,208.500000 
"/>
<path fill="none" opacity="1.000000" stroke="#000000" stroke-linecap="round" stroke-linejoin="round" stroke-width="3.000000"
	d="
M311.500000,394.000000 
	C310.421356,399.807281 311.281189,405.669952 311.000000,411.500000 
"/>
<path fill="none" opacity="1.000000" stroke="#000000" stroke-linecap="round" stroke-linejoin="round" stroke-width="2.000000"
	d="
M249.000000,156.500000 
	C247.389755,162.304993 247.105545,168.450958 244.500000,174.000000 
"/>
<path fill="none" opacity="1.000000" stroke="#000000" stroke-linecap="round" stroke-linejoin="round" stroke-width="3.000000"
	d="
M311.500000,390.500000 
	C311.668213,391.333008 311.013489,392.421814 312.010193,392.981873 
	C315.939484,395.189880 317.691559,399.311127 320.498505,402.501312 
	C322.839172,405.161530 325.166687,407.833313 327.500000,410.500000 
"/>
<path fill="none" opacity="1.000000" stroke="#000000" stroke-linecap="round" stroke-linejoin="round" stroke-width="3.000000"
	d="
M194.000000,411.000000 
	C193.166672,409.833344 192.152573,408.754852 191.532623,407.484070 
	C189.351578,403.013306 185.962036,401.042175 181.000000,402.000000 
"/>
<path fill="none" opacity="1.000000" stroke="#000000" stroke-linecap="round" stroke-linejoin="round" stroke-width="2.000000"
	d="
M313.500000,152.000000 
	C304.761658,146.568253 293.338531,148.171631 286.551117,156.044083 
	C284.383148,158.558670 281.829193,156.980682 279.500000,157.500000 
"/>
<path fill="none" opacity="1.000000" stroke="#000000" stroke-linecap="round" stroke-linejoin="round" stroke-width="2.000000"
	d="
M248.500000,122.500000 
	C247.367355,133.774094 249.285965,144.866928 250.529129,155.996750 
	C250.643555,157.021194 251.166672,158.000000 251.500000,159.000000 
"/>
<path fill="none" opacity="1.000000" stroke="#000000" stroke-linecap="round" stroke-linejoin="round" stroke-width="2.000000"
	d="
M347.500000,237.500000 
	C350.893066,243.178238 357.761353,243.064423 362.874939,247.719193 
	C363.253571,242.331909 359.720917,239.878296 358.500000,236.500000 
"/>
<path fill="none" opacity="1.000000" stroke="#000000" stroke-linecap="round" stroke-linejoin="round" stroke-width="2.000000"
	d="
M325.500000,147.500000 
	C326.664581,147.329163 327.175262,145.850525 328.838104,146.028183 
	C325.025177,141.318741 320.409485,137.988266 315.501678,134.997269 
	C311.310028,132.442734 308.403961,135.203522 305.524231,137.529999 
	C302.219177,140.200104 300.432037,144.432022 296.500000,146.500000 
"/>
<path fill="none" opacity="1.000000" stroke="#000000" stroke-linecap="round" stroke-linejoin="round" stroke-width="2.000000"
	d="
M286.500000,121.500000 
	C284.561981,128.076721 285.279724,133.824921 290.948639,138.561478 
	C294.260742,141.328842 294.965790,145.851990 297.000000,149.500000 
"/>
<path fill="none" opacity="1.000000" stroke="#000000" stroke-linecap="round" stroke-linejoin="round" stroke-width="2.000000"
	d="
M218.500000,222.500000 
	C219.060440,219.939560 217.143280,219.871140 215.500824,219.496368 
	C211.165054,218.507080 206.833328,217.500000 202.500000,216.500000 
"/>
<path fill="none" opacity="1.000000" stroke="#000000" stroke-linecap="round" stroke-linejoin="round" stroke-width="2.000000"
	d="
M238.000000,213.500000 
	C238.500000,218.166672 239.000000,222.833328 239.500000,227.500000 
"/>
<path fill="none" opacity="1.000000" stroke="#000000" stroke-linecap="round" stroke-linejoin="round" stroke-width="2.000000"
	d="
M351.500000,189.500000 
	C351.534302,194.364441 349.335846,198.421555 347.092194,202.550095 
	C346.277100,204.049942 345.347168,203.429092 344.498596,203.456284 
	C341.168671,203.563095 337.833344,203.500000 334.500000,203.500000 
"/>
<path fill="none" opacity="1.000000" stroke="#000000" stroke-linecap="round" stroke-linejoin="round" stroke-width="3.000000"
	d="
M188.500000,135.000000 
	C192.919144,137.679565 197.409729,139.789139 198.813950,145.928192 
	C199.513474,148.986389 203.490463,151.318634 207.500000,151.500000 
"/>
<path fill="none" opacity="1.000000" stroke="#000000" stroke-linecap="round" stroke-linejoin="round" stroke-width="2.000000"
	d="
M274.500000,199.500000 
	C269.924316,199.318726 265.752594,202.773239 261.000000,201.000000 
"/>
<path fill="none" opacity="1.000000" stroke="#000000" stroke-linecap="round" stroke-linejoin="round" stroke-width="2.000000"
	d="
M348.000000,214.500000 
	C352.500000,216.833344 357.000000,219.166672 361.500000,221.500000 
"/>
<path fill="none" opacity="1.000000" stroke="#000000" stroke-linecap="round" stroke-linejoin="round" stroke-width="2.000000"
	d="
M306.500000,212.500000 
	C302.462616,215.141251 298.531982,218.013702 293.500000,218.500000 
"/>
<path fill="none" opacity="1.000000" stroke="#000000" stroke-linecap="round" stroke-linejoin="round" stroke-width="2.000000"
	d="
M280.500000,166.000000 
	C275.687378,164.340988 271.598480,166.445465 267.500000,168.500000 
"/>
<path fill="none" opacity="1.000000" stroke="#000000" stroke-linecap="round" stroke-linejoin="round" stroke-width="3.000000"
	d="
M265.000000,355.500000 
	C269.087280,360.683929 270.191223,367.231934 273.017914,372.991211 
	C273.214447,373.391693 273.666656,373.666656 274.000000,374.000000 
"/>
<path fill="none" opacity="1.000000" stroke="#000000" stroke-linecap="round" stroke-linejoin="round" stroke-width="2.000000"
	d="
M97.500000,210.500000 
	C93.370529,208.504120 89.486908,205.709229 84.500000,206.500000 
"/>
<path fill="none" opacity="1.000000" stroke="#000000" stroke-linecap="round" stroke-linejoin="round" stroke-width="3.000000"
	d="
M141.500000,230.500000 
	C134.777267,237.285492 131.264191,245.446564 131.000000,255.000000 
"/>
<path fill="none" opacity="1.000000" stroke="#000000" stroke-linecap="round" stroke-linejoin="round" stroke-width="2.000000"
	d="
M218.000000,229.500000 
	C213.888626,232.965057 212.297424,238.635239 207.500000,241.500000 
"/>
<path fill="none" opacity="1.000000" stroke="#000000" stroke-linecap="round" stroke-linejoin="round" stroke-width="2.000000"
	d="
M114.500000,263.500000 
	C109.367386,263.768219 105.993523,267.845093 101.503929,269.510590 
	C100.809204,269.768280 100.166672,270.166656 99.500000,270.500000 
"/>
<path fill="none" opacity="1.000000" stroke="#000000" stroke-linecap="round" stroke-linejoin="round" stroke-width="3.000000"
	d="
M316.000000,316.500000 
	C317.827972,319.240479 314.574890,320.197662 313.826172,321.924622 
	C311.636414,326.975464 310.220703,332.414093 307.000000,337.000000 
"/>
<path fill="none" opacity="1.000000" stroke="#000000" stroke-linecap="round" stroke-linejoin="round" stroke-width="3.000000"
	d="
M265.000000,353.500000 
	C262.333344,359.500000 259.696198,365.513458 256.974823,371.488525 
	C256.437195,372.668976 256.190582,374.214386 254.500000,374.500000 
"/>
<path fill="none" opacity="1.000000" stroke="#000000" stroke-linecap="round" stroke-linejoin="round" stroke-width="2.000000"
	d="
M287.500000,237.500000 
	C294.435760,242.514404 301.954895,246.187073 310.500000,247.500000 
"/>
<path fill="none" opacity="1.000000" stroke="#000000" stroke-linecap="round" stroke-linejoin="round" stroke-width="2.000000"
	d="
M218.500000,188.000000 
	C215.172760,191.351608 210.436783,190.476990 205.960541,191.782593 
	C203.292175,190.721558 201.649490,187.451065 198.550903,185.898407 
	C196.523071,184.882309 196.557419,183.431381 197.500000,180.500000 
"/>
<path fill="none" opacity="1.000000" stroke="#000000" stroke-linecap="round" stroke-linejoin="round" stroke-width="2.000000"
	d="
M295.000000,177.000000 
	C292.633331,181.178253 290.864227,185.798203 286.500000,188.500000 
"/>
<path fill="none" opacity="1.000000" stroke="#000000" stroke-linecap="round" stroke-linejoin="round" stroke-width="2.000000"
	d="
M283.500000,244.500000 
	C285.868835,245.417145 288.123474,246.616684 290.440399,247.635498 
	C294.456635,249.401581 296.486267,247.965698 298.000000,244.500000 
"/>
<path fill="none" opacity="1.000000" stroke="#000000" stroke-linecap="round" stroke-linejoin="round" stroke-width="3.000000"
	d="
M317.000000,319.000000 
	C320.204102,323.773407 321.552155,329.385956 324.021454,334.489624 
	C324.588196,335.660919 324.809418,337.214386 326.500000,337.500000 
"/>
<path fill="none" opacity="1.000000" stroke="#000000" stroke-linecap="round" stroke-linejoin="round" stroke-width="3.000000"
	d="
M352.500000,401.000000 
	C348.666656,401.000000 344.833344,401.000000 341.000000,401.000000 
"/>
<path fill="none" opacity="1.000000" stroke="#000000" stroke-linecap="round" stroke-linejoin="round" stroke-width="2.000000"
	d="
M263.500000,259.500000 
	C267.248718,261.612549 271.019470,263.219116 275.000000,260.000000 
"/>
<path fill="none" opacity="1.000000" stroke="#000000" stroke-linecap="round" stroke-linejoin="round" stroke-width="3.000000"
	d="
M298.500000,401.000000 
	C294.666656,401.000000 290.833344,401.000000 287.000000,401.000000 
"/>
<path fill="none" opacity="1.000000" stroke="#000000" stroke-linecap="round" stroke-linejoin="round" stroke-width="3.000000"
	d="
M217.500000,327.000000 
	C213.666672,327.000000 209.833328,327.000000 206.000000,327.000000 
"/>
<path fill="none" opacity="1.000000" stroke="#000000" stroke-linecap="round" stroke-linejoin="round" stroke-width="3.000000"
	d="
M196.500000,200.500000 
	C199.689667,202.795929 203.424850,202.118179 206.988663,202.586288 
	C211.824066,203.221420 216.593155,204.366257 221.500000,204.500000 
"/>
<path fill="none" opacity="1.000000" stroke="#000000" stroke-linecap="round" stroke-linejoin="round" stroke-width="2.000000"
	d="
M120.500000,212.500000 
	C124.470467,209.714188 128.954346,210.930481 132.972321,211.653763 
	C141.496201,213.188171 149.898376,214.757935 158.500000,212.500000 
"/>
<path fill="none" opacity="1.000000" stroke="#000000" stroke-linecap="round" stroke-linejoin="round" stroke-width="2.000000"
	d="
M311.000000,331.000000 
	C314.666656,331.800262 318.333344,331.800262 322.000000,331.000000 
"/>
<path fill="none" opacity="1.000000" stroke="#000000" stroke-linecap="round" stroke-linejoin="round" stroke-width="2.000000"
	d="
M194.500000,192.500000 
	C193.870132,195.225967 194.821121,197.635773 196.478592,200.247269 
	C192.226852,201.412018 188.995529,199.031296 185.500000,198.500000 
"/>
<path fill="none" opacity="1.000000" stroke="#000000" stroke-linecap="round" stroke-linejoin="round" stroke-width="2.000000"
	d="
M125.000000,250.000000 
	C120.464386,252.464386 119.041695,258.041687 114.500000,260.500000 
"/>
<path fill="none" opacity="1.000000" stroke="#000000" stroke-linecap="round" stroke-linejoin="round" stroke-width="2.000000"
	d="
M312.000000,152.500000 
	C308.763031,154.420654 305.117249,154.910355 301.500000,155.500000 
"/>
<path fill="none" opacity="1.000000" stroke="#000000" stroke-linecap="round" stroke-linejoin="round" stroke-width="2.000000"
	d="
M321.500000,167.500000 
	C328.034180,167.500000 328.381073,167.058548 327.000000,160.500000 
	C326.012817,155.811920 320.694458,151.253342 316.500000,151.500000 
"/>
<path fill="none" opacity="1.000000" stroke="#000000" stroke-linecap="round" stroke-linejoin="round" stroke-width="2.000000"
	d="
M183.500000,201.500000 
	C187.666672,203.333328 191.833344,205.166656 196.000000,207.000000 
"/>
<path fill="none" opacity="1.000000" stroke="#000000" stroke-linecap="round" stroke-linejoin="round" stroke-width="2.000000"
	d="
M259.500000,368.000000 
	C263.000000,368.828217 266.500000,368.783508 270.000000,368.000000 
"/>
<path fill="none" opacity="1.000000" stroke="#000000" stroke-linecap="round" stroke-linejoin="round" stroke-width="2.000000"
	d="
M170.500000,228.500000 
	C167.166672,228.500000 163.833328,228.500000 160.500000,228.500000 
"/>
<path fill="none" opacity="1.000000" stroke="#000000" stroke-linecap="round" stroke-linejoin="round" stroke-width="2.000000"
	d="
M227.000000,219.500000 
	C227.527832,223.173630 223.946320,225.819916 224.500000,229.500000 
"/>
<path fill="none" opacity="1.000000" stroke="#000000" stroke-linecap="round" stroke-linejoin="round" stroke-width="2.000000"
	d="
M148.500000,205.500000 
	C150.833344,206.999985 153.189163,208.466339 155.495056,210.007385 
	C159.575882,212.734604 163.638977,213.941574 168.064819,210.585480 
	C168.573471,210.199783 170.146194,209.956192 171.000000,211.000000 
"/>
<path fill="none" opacity="1.000000" stroke="#000000" stroke-linecap="round" stroke-linejoin="round" stroke-width="2.000000"
	d="
M326.000000,168.000000 
	C324.998260,172.071304 321.397400,173.705902 318.273315,176.061264 
	C316.120605,175.851532 315.584351,173.069992 313.500000,172.500000 
"/>
<path fill="none" opacity="1.000000" stroke="#000000" stroke-linecap="round" stroke-linejoin="round" stroke-width="2.000000"
	d="
M261.000000,229.500000 
	C259.603882,232.343674 261.031769,235.971786 258.500000,238.500000 
"/>
<path fill="none" opacity="1.000000" stroke="#000000" stroke-linecap="round" stroke-linejoin="round" stroke-width="3.000000"
	d="
M215.000000,247.000000 
	C213.500000,248.500000 212.086304,250.100845 210.479507,251.476044 
	C208.154755,253.465729 205.188080,254.498581 202.580231,252.871429 
	C200.208130,251.391357 197.660400,252.807037 195.500000,251.500000 
"/>
<path fill="none" opacity="1.000000" stroke="#000000" stroke-linecap="round" stroke-linejoin="round" stroke-width="2.000000"
	d="
M201.500000,173.500000 
	C203.398911,177.510361 206.912506,176.030823 210.027634,175.976898 
	C211.024292,177.044144 210.256927,178.344254 210.500000,179.500000 
"/>
<path fill="none" opacity="1.000000" stroke="#000000" stroke-linecap="round" stroke-linejoin="round" stroke-width="2.000000"
	d="
M224.500000,178.500000 
	C222.628174,178.294830 220.894135,179.635406 222.145752,180.849777 
	C224.674698,183.303482 222.903732,185.632797 223.000000,188.000000 
"/>
<path fill="none" opacity="1.000000" stroke="#000000" stroke-linecap="round" stroke-linejoin="round" stroke-width="2.000000"
	d="
M249.000000,250.500000 
	C250.919098,254.803528 247.793564,257.272858 245.473648,259.977386 
	C244.637955,260.951660 243.500000,261.666656 242.500000,262.500000 
"/>
<path fill="none" opacity="1.000000" stroke="#000000" stroke-linecap="round" stroke-linejoin="round" stroke-width="2.000000"
	d="
M332.000000,210.000000 
	C328.879913,211.051666 325.662048,210.245453 322.500000,210.500000 
"/>
<path fill="none" opacity="1.000000" stroke="#000000" stroke-linecap="round" stroke-linejoin="round" stroke-width="2.000000"
	d="
M223.500000,129.500000 
	C220.773422,127.518524 217.779160,128.687347 215.012390,129.085983 
	C209.549088,129.873138 208.500000,131.987183 208.500000,140.500000 
"/>
<path fill="none" opacity="1.000000" stroke="#000000" stroke-linecap="round" stroke-linejoin="round" stroke-width="2.000000"
	d="
M261.000000,400.500000 
	C264.166656,400.500000 267.333344,400.500000 270.500000,400.500000 
"/>
<path fill="none" opacity="1.000000" stroke="#000000" stroke-linecap="round" stroke-linejoin="round" stroke-width="2.000000"
	d="
M344.500000,191.500000 
	C344.399506,194.759399 346.295502,197.464218 347.000000,200.500000 
"/>
<path fill="none" opacity="1.000000" stroke="#000000" stroke-linecap="round" stroke-linejoin="round" stroke-width="3.000000"
	d="
M299.500000,317.000000 
	C293.834503,317.206635 288.143738,316.554108 282.500000,317.500000 
"/>
<path fill="none" opacity="1.000000" stroke="#000000" stroke-linecap="round" stroke-linejoin="round" stroke-width="2.000000"
	d="
M213.000000,200.000000 
	C217.915176,197.793274 222.691345,199.617737 227.500000,200.500000 
"/>
<path fill="none" opacity="1.000000" stroke="#000000" stroke-linecap="round" stroke-linejoin="round" stroke-width="2.000000"
	d="
M333.500000,224.500000 
	C330.226685,223.936798 327.761841,227.011642 324.500000,226.500000 
"/>
<path fill="none" opacity="1.000000" stroke="#000000" stroke-linecap="round" stroke-linejoin="round" stroke-width="2.000000"
	d="
M192.500000,287.500000 
	C189.486771,287.714325 186.604935,289.111115 183.500000,288.500000 
"/>
<path fill="none" opacity="1.000000" stroke="#000000" stroke-linecap="round" stroke-linejoin="round" stroke-width="2.000000"
	d="
M186.500000,170.500000 
	C189.607239,170.002563 192.289597,171.310883 195.772171,172.406876 
	C191.982635,174.251770 188.664886,173.149780 185.500000,173.500000 
"/>
<path fill="none" opacity="1.000000" stroke="#000000" stroke-linecap="round" stroke-linejoin="round" stroke-width="2.000000"
	d="
M178.500000,178.500000 
	C173.389587,177.177155 168.596161,180.608978 163.500000,179.500000 
"/>
<path fill="none" opacity="1.000000" stroke="#000000" stroke-linecap="round" stroke-linejoin="round" stroke-width="2.000000"
	d="
M332.500000,239.500000 
	C332.360870,236.391190 330.255920,234.643341 328.328125,232.957458 
	C323.091858,234.779892 322.565094,239.689346 320.500000,243.500000 
"/>
<path fill="none" opacity="1.000000" stroke="#000000" stroke-linecap="round" stroke-linejoin="round" stroke-width="3.000000"
	d="
M219.500000,391.000000 
	C213.833328,391.000000 208.166672,391.000000 202.500000,391.000000 
"/>
<path fill="none" opacity="1.000000" stroke="#000000" stroke-linecap="round" stroke-linejoin="round" stroke-width="2.000000"
	d="
M275.500000,217.500000 
	C272.508728,217.823654 269.445160,216.846313 266.500000,218.000000 
"/>
<path fill="none" opacity="1.000000" stroke="#000000" stroke-linecap="round" stroke-linejoin="round" stroke-width="2.000000"
	d="
M253.500000,199.500000 
	C251.470215,199.309158 249.656784,201.714828 247.345444,199.877045 
	C243.272919,207.593246 235.243423,210.204025 228.500000,214.500000 
"/>
<path fill="none" opacity="1.000000" stroke="#000000" stroke-linecap="round" stroke-linejoin="round" stroke-width="2.000000"
	d="
M296.000000,126.500000 
	C295.107666,128.306503 295.306030,130.483490 293.588348,132.094208 
	C292.757446,132.873367 294.417542,133.716141 295.000000,134.500000 
"/>
<path fill="none" opacity="1.000000" stroke="#000000" stroke-linecap="round" stroke-linejoin="round" stroke-width="2.000000"
	d="
M342.500000,260.500000 
	C342.229156,263.342438 342.138062,266.241058 340.000000,268.500000 
"/>
<path fill="none" opacity="1.000000" stroke="#000000" stroke-linecap="round" stroke-linejoin="round" stroke-width="2.000000"
	d="
M220.000000,176.500000 
	C219.451126,170.157852 214.444336,166.792084 210.261948,163.283783 
	C209.253143,162.437561 205.159897,163.224945 202.500000,163.500000 
"/>
<path fill="none" opacity="1.000000" stroke="#000000" stroke-linecap="round" stroke-linejoin="round" stroke-width="3.000000"
	d="
M252.500000,205.000000 
	C249.833328,205.000000 247.166672,205.000000 244.500000,205.000000 
"/>
<path fill="none" opacity="1.000000" stroke="#000000" stroke-linecap="round" stroke-linejoin="round" stroke-width="2.000000"
	d="
M174.500000,154.500000 
	C171.840103,154.224945 169.110626,155.063370 166.500000,154.000000 
"/>
<path fill="none" opacity="1.000000" stroke="#000000" stroke-linecap="round" stroke-linejoin="round" stroke-width="2.000000"
	d="
M160.500000,205.500000 
	C161.643372,208.832626 166.035629,207.616791 167.500000,210.500000 
"/>
<path fill="none" opacity="1.000000" stroke="#000000" stroke-linecap="round" stroke-linejoin="round" stroke-width="2.000000"
	d="
M186.500000,189.500000 
	C185.183670,190.045319 183.394424,188.312759 182.379959,190.953888 
	C181.272583,193.836884 179.647156,196.409470 181.500000,199.500000 
"/>
<path fill="none" opacity="1.000000" stroke="#000000" stroke-linecap="round" stroke-linejoin="round" stroke-width="2.000000"
	d="
M271.500000,220.000000 
	C276.235077,218.251587 280.785370,221.676315 285.500000,220.500000 
"/>
<path fill="none" opacity="1.000000" stroke="#000000" stroke-linecap="round" stroke-linejoin="round" stroke-width="2.000000"
	d="
M197.500000,289.500000 
	C194.840103,289.224945 192.110626,290.063354 189.500000,289.000000 
"/>
<path fill="none" opacity="1.000000" stroke="#000000" stroke-linecap="round" stroke-linejoin="round" stroke-width="2.000000"
	d="
M148.500000,224.000000 
	C145.708771,222.173752 143.239731,225.502487 140.500000,224.500000 
"/>
<path fill="none" opacity="1.000000" stroke="#000000" stroke-linecap="round" stroke-linejoin="round" stroke-width="2.000000"
	d="
M173.000000,119.000000 
	C174.561661,122.661285 177.179001,125.353531 180.473648,127.539703 
	C182.029816,128.572311 184.328796,129.004547 184.500000,131.500000 
"/>
<path fill="none" opacity="1.000000" stroke="#000000" stroke-linecap="round" stroke-linejoin="round" stroke-width="2.000000"
	d="
M184.500000,240.500000 
	C181.833328,241.000000 179.166672,241.500000 176.500000,242.000000 
"/>
<path fill="none" opacity="1.000000" stroke="#000000" stroke-linecap="round" stroke-linejoin="round" stroke-width="2.000000"
	d="
M245.500000,108.500000 
	C244.843948,113.119751 247.094925,117.180466 248.000000,121.500000 
"/>
<path fill="none" opacity="1.000000" stroke="#000000" stroke-linecap="round" stroke-linejoin="round" stroke-width="2.000000"
	d="
M295.500000,168.000000 
	C295.643646,170.668106 297.561737,173.225311 296.000000,176.000000 
"/>
<path fill="none" opacity="1.000000" stroke="#000000" stroke-linecap="round" stroke-linejoin="round" stroke-width="2.000000"
	d="
M246.500000,260.500000 
	C247.813385,264.637238 244.629730,268.260925 245.230881,272.537842 
	C245.518799,274.586212 245.576233,276.598419 246.500000,278.500000 
"/>
<path fill="none" opacity="1.000000" stroke="#000000" stroke-linecap="round" stroke-linejoin="round" stroke-width="2.000000"
	d="
M203.500000,203.000000 
	C202.808701,204.950745 200.862045,204.385376 199.510681,205.022644 
	C197.574890,205.935516 195.356796,206.687531 195.500000,209.500000 
"/>
<path fill="none" opacity="1.000000" stroke="#000000" stroke-linecap="round" stroke-linejoin="round" stroke-width="2.000000"
	d="
M371.500000,210.500000 
	C367.702728,210.448303 364.059357,211.243118 360.500000,212.500000 
"/>
<path fill="none" opacity="1.000000" stroke="#000000" stroke-linecap="round" stroke-linejoin="round" stroke-width="2.000000"
	d="
M286.000000,157.500000 
	C286.864929,160.610977 285.700500,161.819519 282.496552,161.539474 
	C280.180908,161.337067 277.833344,161.500000 275.500000,161.500000 
"/>
<path fill="none" opacity="1.000000" stroke="#000000" stroke-linecap="round" stroke-linejoin="round" stroke-width="3.000000"
	d="
M204.500000,142.500000 
	C204.591766,145.017227 205.849319,147.612183 204.000000,150.000000 
"/>
<path fill="none" opacity="1.000000" stroke="#000000" stroke-linecap="round" stroke-linejoin="round" stroke-width="2.000000"
	d="
M335.500000,213.000000 
	C338.333344,211.235504 341.038910,210.677185 344.039764,212.947418 
	C346.511566,214.817368 349.333344,213.936432 352.000000,213.000000 
"/>
<path fill="none" opacity="1.000000" stroke="#000000" stroke-linecap="round" stroke-linejoin="round" stroke-width="2.000000"
	d="
M177.500000,207.500000 
	C172.891449,210.502792 168.782547,214.050659 165.500000,218.500000 
"/>
<path fill="none" opacity="1.000000" stroke="#000000" stroke-linecap="round" stroke-linejoin="round" stroke-width="2.000000"
	d="
M284.500000,218.500000 
	C282.011200,218.917328 279.275940,217.486328 277.000000,219.500000 
"/>
<path fill="none" opacity="1.000000" stroke="#000000" stroke-linecap="round" stroke-linejoin="round" stroke-width="2.000000"
	d="
M310.500000,182.500000 
	C311.627930,185.059128 309.689819,186.570389 308.021332,186.343246 
	C303.774170,185.764999 301.902740,188.686646 299.500000,191.000000 
"/>
<path fill="none" opacity="1.000000" stroke="#000000" stroke-linecap="round" stroke-linejoin="round" stroke-width="2.000000"
	d="
M219.500000,195.500000 
	C221.931839,196.712418 224.184464,195.415802 226.500000,195.000000 
"/>
<path fill="none" opacity="1.000000" stroke="#000000" stroke-linecap="round" stroke-linejoin="round" stroke-width="2.000000"
	d="
M257.500000,154.500000 
	C252.287140,157.711700 249.255112,162.169586 249.500000,168.500000 
"/>
<path fill="none" opacity="1.000000" stroke="#000000" stroke-linecap="round" stroke-linejoin="round" stroke-width="2.000000"
	d="
M224.500000,103.500000 
	C226.833328,105.666664 229.166672,107.833328 231.500000,110.000000 
"/>
<path fill="none" opacity="1.000000" stroke="#000000" stroke-linecap="round" stroke-linejoin="round" stroke-width="2.000000"
	d="
M297.500000,114.500000 
	C297.500000,117.666664 297.610809,120.839363 297.439178,123.996696 
	C297.380066,125.084740 297.103058,128.078842 295.500000,124.500000 
"/>
<path fill="none" opacity="1.000000" stroke="#000000" stroke-linecap="round" stroke-linejoin="round" stroke-width="2.000000"
	d="
M220.500000,287.500000 
	C216.868744,289.244568 214.268799,293.258026 209.500000,292.500000 
"/>
<path fill="none" opacity="1.000000" stroke="#000000" stroke-linecap="round" stroke-linejoin="round" stroke-width="2.000000"
	d="
M341.500000,166.500000 
	C345.485229,167.170624 345.485229,167.170624 348.001007,173.005035 
	C347.316681,173.916809 346.334167,173.337463 345.500000,173.500000 
"/>
<path fill="none" opacity="1.000000" stroke="#000000" stroke-linecap="round" stroke-linejoin="round" stroke-width="2.000000"
	d="
M326.500000,157.000000 
	C330.696838,155.925217 334.747345,156.021149 338.500000,158.500000 
"/>
<path fill="none" opacity="1.000000" stroke="#000000" stroke-linecap="round" stroke-linejoin="round" stroke-width="2.000000"
	d="
M312.000000,186.000000 
	C315.322388,189.366119 320.253967,187.904724 323.932373,190.060745 
	C324.916809,189.316696 324.337463,188.334167 324.500000,187.500000 
"/>
<path fill="none" opacity="1.000000" stroke="#000000" stroke-linecap="round" stroke-linejoin="round" stroke-width="2.000000"
	d="
M280.500000,222.500000 
	C278.661377,222.608322 276.771820,222.156647 275.000000,223.000000 
"/>
<path fill="none" opacity="1.000000" stroke="#000000" stroke-linecap="round" stroke-linejoin="round" stroke-width="2.000000"
	d="
M341.500000,225.500000 
	C340.409515,222.590485 337.174530,221.825470 335.224060,219.807083 
	C336.900604,217.836288 338.811615,218.724686 340.500000,218.500000 
"/>
<path fill="none" opacity="1.000000" stroke="#000000" stroke-linecap="round" stroke-linejoin="round" stroke-width="2.000000"
	d="
M249.500000,116.500000 
	C249.057465,118.333336 252.255203,120.166664 249.500000,122.000000 
"/>
<path fill="none" opacity="1.000000" stroke="#000000" stroke-linecap="round" stroke-linejoin="round" stroke-width="2.000000"
	d="
M235.500000,131.000000 
	C234.137299,134.372604 230.642395,134.625137 227.952698,135.900208 
	C226.293396,136.686813 225.252029,135.414642 225.500000,133.500000 
"/>
<path fill="none" opacity="1.000000" stroke="#000000" stroke-linecap="round" stroke-linejoin="round" stroke-width="2.000000"
	d="
M288.000000,136.500000 
	C286.338318,137.016617 284.003357,135.288956 283.000000,138.000000 
"/>
<path fill="none" opacity="1.000000" stroke="#000000" stroke-linecap="round" stroke-linejoin="round" stroke-width="2.000000"
	d="
M225.000000,271.500000 
	C220.988892,273.167908 218.653885,276.046326 218.500000,280.500000 
"/>
<path fill="none" opacity="1.000000" stroke="#000000" stroke-linecap="round" stroke-linejoin="round" stroke-width="2.000000"
	d="
M231.000000,135.500000 
	C232.058701,137.077469 231.229889,138.843674 231.500000,140.500000 
"/>
<path fill="none" opacity="1.000000" stroke="#000000" stroke-linecap="round" stroke-linejoin="round" stroke-width="2.000000"
	d="
M219.500000,187.500000 
	C224.150818,186.811478 224.437378,191.578278 227.000000,193.500000 
"/>
<path fill="none" opacity="1.000000" stroke="#000000" stroke-linecap="round" stroke-linejoin="round" stroke-width="2.000000"
	d="
M161.500000,223.500000 
	C160.029800,226.166672 159.619751,228.833328 161.500000,231.500000 
"/>
<path fill="none" opacity="1.000000" stroke="#000000" stroke-linecap="round" stroke-linejoin="round" stroke-width="2.000000"
	d="
M279.000000,145.500000 
	C277.898773,143.936096 276.472534,143.103455 274.500000,143.500000 
"/>
<path fill="none" opacity="1.000000" stroke="#000000" stroke-linecap="round" stroke-linejoin="round" stroke-width="3.000000"
	d="
M228.000000,267.000000 
	C227.046951,269.120636 225.058090,270.842865 225.500000,273.500000 
"/>
<path fill="none" opacity="1.000000" stroke="#000000" stroke-linecap="round" stroke-linejoin="round" stroke-width="2.000000"
	d="
M172.500000,232.500000 
	C171.179352,232.768204 169.721909,231.941986 168.500000,233.000000 
"/>
<path fill="none" opacity="1.000000" stroke="#000000" stroke-linecap="round" stroke-linejoin="round" stroke-width="2.000000"
	d="
M336.000000,221.500000 
	C333.356140,223.097992 335.094116,227.512878 331.500000,228.500000 
"/>
<path fill="none" opacity="1.000000" stroke="#000000" stroke-linecap="round" stroke-linejoin="round" stroke-width="2.000000"
	d="
M322.500000,236.000000 
	C321.278076,234.941986 319.820648,235.768204 318.500000,235.500000 
"/>
<path fill="none" opacity="1.000000" stroke="#000000" stroke-linecap="round" stroke-linejoin="round" stroke-width="2.000000"
	d="
M263.000000,227.000000 
	C265.171539,227.450302 264.331482,229.191269 264.500000,230.500000 
"/>
<path fill="none" opacity="1.000000" stroke="#000000" stroke-linecap="round" stroke-linejoin="round" stroke-width="2.000000"
	d="
M200.500000,197.500000 
	C199.073029,197.458771 197.729401,197.750931 196.500000,198.500000 
"/>
<path fill="none" opacity="1.000000" stroke="#000000" stroke-linecap="round" stroke-linejoin="round" stroke-width="2.000000"
	d="
M371.000000,241.000000 
	C372.572083,241.761261 373.738739,242.927917 374.500000,244.500000 
"/>
<path fill="none" opacity="1.000000" stroke="#000000" stroke-linecap="round" stroke-linejoin="round" stroke-width="2.000000"
	d="
M180.500000,146.500000 
	C180.520264,148.636276 182.059494,148.494095 183.500000,148.500000 
"/>
<path fill="none" opacity="1.000000" stroke="#000000" stroke-linecap="round" stroke-linejoin="round" stroke-width="2.000000"
	d="
M293.500000,165.000000 
	C296.289276,163.205063 298.813049,165.657669 301.500000,165.500000 
"/>
<path fill="none" opacity="1.000000" stroke="#000000" stroke-linecap="round" stroke-linejoin="round" stroke-width="2.000000"
	d="
M309.500000,179.500000 
	C306.166656,182.039398 302.833344,181.064240 299.500000,179.500000 
"/>
<path fill="none" opacity="1.000000" stroke="#000000" stroke-linecap="round" stroke-linejoin="round" stroke-width="2.000000"
	d="
M321.000000,240.500000 
	C319.833344,240.500000 318.666656,240.500000 317.500000,240.500000 
"/>
<path fill="none" opacity="1.000000" stroke="#000000" stroke-linecap="round" stroke-linejoin="round" stroke-width="2.000000"
	d="
M330.500000,152.500000 
	C329.950928,153.918777 331.727417,154.673126 331.500000,156.000000 
"/>
<path fill="none" opacity="1.000000" stroke="#000000" stroke-linecap="round" stroke-linejoin="round" stroke-width="2.000000"
	d="
M230.000000,262.000000 
	C229.807159,264.807159 228.898895,266.898895 225.500000,266.500000 
"/>
<path fill="none" opacity="1.000000" stroke="#000000" stroke-linecap="round" stroke-linejoin="round" stroke-width="2.000000"
	d="
M290.500000,163.500000 
	C293.132690,164.309479 293.922180,168.344528 297.500000,167.500000 
"/>
<path fill="none" opacity="1.000000" stroke="#000000" stroke-linecap="round" stroke-linejoin="round" stroke-width="3.000000"
	d="
M156.000000,391.000000 
	C146.924362,394.445496 146.335327,401.813477 149.947372,407.036407 
	C153.010864,411.466217 158.682892,412.362549 164.017731,409.028351 
	C168.410309,406.283081 169.472061,400.319336 166.878204,396.074432 
	C164.701294,392.511871 161.080124,390.398407 156.500000,391.000000 
"/>
<path fill="none" opacity="1.000000" stroke="#000000" stroke-linecap="round" stroke-linejoin="round" stroke-width="3.000000"
	d="
M231.500000,317.000000 
	C230.597031,317.097015 230.016754,317.596680 230.012985,318.500061 
	C229.987915,324.504578 230.000000,330.509247 230.000000,337.248444 
	C233.508423,336.484802 236.399109,337.603485 239.546585,336.097351 
	C244.623108,333.668091 246.346085,331.477295 246.000031,326.000000 
	C245.739349,321.874176 243.312302,319.625427 238.539383,317.891602 
	C236.313095,317.082916 234.202805,317.098419 232.000000,317.000000 
"/>
<path fill="none" opacity="1.000000" stroke="#000000" stroke-linecap="round" stroke-linejoin="round" stroke-width="3.000000"
	d="
M232.500000,354.000000 
	C231.597031,354.097015 231.016769,354.596680 231.013000,355.500061 
	C230.987930,361.504578 231.000000,367.509247 231.000000,373.878876 
	C235.958160,374.124115 240.403915,374.522064 243.990128,370.989990 
	C249.097717,365.959351 247.262573,357.285339 240.472214,355.085754 
	C238.131607,354.327606 235.624130,353.402344 233.000000,354.000000 
"/>
</svg>